<?xml version="1.0" encoding="utf-8"?>
<!-- Generator: Adobe Illustrator 26.2.1, SVG Export Plug-In . SVG Version: 6.00 Build 0)  -->
<svg version="1.1" xmlns="http://www.w3.org/2000/svg" xmlns:xlink="http://www.w3.org/1999/xlink" x="0px" y="0px"
	 viewBox="0 0 800 400" style="enable-background:new 0 0 800 400;" xml:space="preserve">
<style type="text/css">
	.st0{fill:#221E21;}
	.st1{fill:#FFFFFF;}
	.st2{fill:none;stroke:#FFFFFF;stroke-width:2.5;stroke-linecap:round;stroke-miterlimit:10;}
	.st3{fill:#FDEC52;}
	.st4{font-family:'DINAlternate-Bold';}
	.st5{font-size:31px;}
	.st6{letter-spacing:9;}
	.st7{font-size:26px;}
	.st8{letter-spacing:7;}
	.st9{font-size:27px;}
	.st10{letter-spacing:8;}
	.st11{font-size:22px;}
	.st12{letter-spacing:6;}
	.st13{font-size:28px;}
</style>
<g id="Layer_1_copy">
	<rect y="-0.33" class="st0" width="800" height="400"/>
	<circle class="st1" cx="91.36" cy="217.17" r="3.58"/>
	<circle class="st1" cx="640.96" cy="275.99" r="3.58"/>
</g>
<g id="Layer_1">
	<line class="st2" x1="404.22" y1="199.88" x2="397.96" y2="86.54"/>
	<line class="st2" x1="397.29" y1="74.57" x2="391.03" y2="-38.78"/>
	<line class="st2" x1="404.22" y1="199.88" x2="374.86" y2="17.89"/>
	<line class="st2" x1="372.68" y1="4.38" x2="342.28" y2="-184.09"/>
	<line class="st2" x1="404.22" y1="199.88" x2="364.22" y2="52.3"/>
	<line class="st2" x1="404.22" y1="199.88" x2="337.64" y2="27.91"/>
	<line class="st2" x1="332.92" y1="15.72" x2="269.66" y2="-147.71"/>
	<line class="st2" x1="404.22" y1="199.88" x2="334.41" y2="63.84"/>
	<line class="st2" x1="404.22" y1="199.88" x2="219.34" y2="-83.05"/>
	<line class="st2" x1="404.22" y1="199.88" x2="307.65" y2="81.33"/>
	<line class="st2" x1="404.22" y1="199.88" x2="95.74" y2="-106.84"/>
	<line class="st2" x1="404.22" y1="199.88" x2="285.12" y2="104"/>
	<line class="st2" x1="404.22" y1="199.88" x2="286.37" y2="123.82"/>
	<line class="st2" x1="270.24" y1="113.42" x2="86.6" y2="-5.1"/>
	<line class="st2" x1="404.22" y1="199.88" x2="267.78" y2="130.85"/>
	<line class="st2" x1="404.22" y1="199.88" x2="-67.9" y2="20.19"/>
	<line class="st2" x1="404.22" y1="199.88" x2="256.41" y2="160.73"/>
	<line class="st2" x1="404.22" y1="199.88" x2="95.84" y2="151.94"/>
	<line class="st2" x1="70.75" y1="148.04" x2="-237.63" y2="100.09"/>
	<line class="st2" x1="404.22" y1="199.88" x2="251.5" y2="192.31"/>
	<line class="st2" x1="404.22" y1="199.88" x2="104.38" y2="216.45"/>
	<line class="st2" x1="78.35" y1="217.89" x2="-221.49" y2="234.46"/>
	<line class="st2" x1="404.22" y1="199.88" x2="253.26" y2="224.23"/>
	<line class="st2" x1="404.22" y1="199.88" x2="-15.34" y2="313.58"/>
	<line class="st2" x1="404.22" y1="199.88" x2="261.63" y2="255.09"/>
	<line class="st2" x1="404.22" y1="199.88" x2="5.07" y2="404.69"/>
	<line class="st2" x1="404.22" y1="199.88" x2="276.22" y2="283.53"/>
	<line class="st2" x1="404.22" y1="199.88" x2="217.33" y2="352.1"/>
	<line class="st2" x1="404.22" y1="199.88" x2="296.41" y2="308.31"/>
	<line class="st2" x1="404.22" y1="199.88" x2="253.06" y2="387.63"/>
	<line class="st2" x1="347.01" y1="287.58" x2="264.1" y2="416.05"/>
	<line class="st2" x1="404.22" y1="199.88" x2="335.19" y2="336.32"/>
	<line class="st2" x1="327.45" y1="351.81" x2="258.42" y2="488.25"/>
	<line class="st2" x1="368.42" y1="293.94" x2="314.03" y2="436.84"/>
	<line class="st2" x1="404.22" y1="199.88" x2="346.2" y2="418.89"/>
	<line class="st2" x1="404.22" y1="199.88" x2="380.73" y2="350.97"/>
	<line class="st2" x1="404.22" y1="199.88" x2="393.53" y2="415.59"/>
	<line class="st2" x1="404.22" y1="199.88" x2="412.65" y2="352.56"/>
	<line class="st2" x1="404.22" y1="199.88" x2="439.73" y2="420.03"/>
	<line class="st2" x1="404.22" y1="199.88" x2="444.21" y2="347.47"/>
	<line class="st2" x1="404.22" y1="199.88" x2="491.51" y2="425.37"/>
	<line class="st2" x1="463.25" y1="314.93" x2="533.05" y2="450.97"/>
	<line class="st2" x1="404.22" y1="199.88" x2="565.88" y2="447.28"/>
	<line class="st2" x1="404.22" y1="199.88" x2="500.78" y2="318.44"/>
	<line class="st2" x1="404.22" y1="199.88" x2="620.88" y2="415.32"/>
	<line class="st2" x1="404.22" y1="199.88" x2="523.32" y2="295.77"/>
	<line class="st2" x1="404.22" y1="199.88" x2="552.72" y2="295.72"/>
	<line class="st2" x1="579.14" y1="312.78" x2="715.17" y2="400.57"/>
	<line class="st2" x1="404.22" y1="199.88" x2="540.65" y2="268.91"/>
	<line class="st2" x1="404.22" y1="199.88" x2="569.67" y2="262.85"/>
	<line class="st2" x1="590.54" y1="270.8" x2="826.9" y2="360.76"/>
	<line class="st2" x1="533.81" y1="234.21" x2="819.74" y2="309.96"/>
	<line class="st2" x1="404.22" y1="199.88" x2="858.03" y2="270.44"/>
	<line class="st2" x1="536" y1="206.41" x2="705.75" y2="214.83"/>
	<line class="st2" x1="722.84" y1="215.67" x2="892.58" y2="224.09"/>
	<line class="st2" x1="404.22" y1="199.88" x2="862.55" y2="174.56"/>
	<line class="st2" x1="404.22" y1="199.88" x2="555.17" y2="175.54"/>
	<line class="st2" x1="404.22" y1="199.88" x2="592.08" y2="148.97"/>
	<line class="st2" x1="611.55" y1="142.24" x2="804.22" y2="90.03"/>
	<line class="st2" x1="404.22" y1="199.88" x2="546.81" y2="144.68"/>
	<line class="st2" x1="404.22" y1="199.88" x2="815.72" y2="-11.26"/>
	<line class="st2" x1="404.22" y1="199.88" x2="532.22" y2="116.24"/>
	<line class="st2" x1="404.22" y1="199.88" x2="501.38" y2="120.74"/>
	<line class="st2" x1="508.44" y1="115" x2="660.06" y2="-8.5"/>
	<line class="st2" x1="404.22" y1="199.88" x2="526.14" y2="77.27"/>
	<line class="st2" x1="404.22" y1="199.88" x2="500.11" y2="80.78"/>
	<line class="st2" x1="512.76" y1="65.06" x2="608.65" y2="-54.04"/>
	<line class="st2" x1="477.38" y1="86.52" x2="560.3" y2="-41.96"/>
	<line class="st2" x1="404.22" y1="199.88" x2="509.05" y2="-7.31"/>
	<line class="st2" x1="404.22" y1="199.88" x2="458.61" y2="56.98"/>
	<line class="st2" x1="404.22" y1="199.88" x2="461.77" y2="-17.36"/>
	<line class="st2" x1="404.22" y1="199.88" x2="427.71" y2="48.79"/>
	<line class="st2" x1="404.22" y1="199.88" x2="412.67" y2="29.42"/>
	<line class="st2" x1="413.37" y1="15.14" x2="421.82" y2="-155.32"/>
	<line class="st2" x1="404.22" y1="199.88" x2="337.96" y2="-44.62"/>
	<line class="st2" x1="404.22" y1="199.88" x2="274.31" y2="-53.29"/>
	<line class="st2" x1="404.22" y1="199.88" x2="288.02" y2="57.23"/>
	<line class="st2" x1="274.18" y1="40.23" x2="157.99" y2="-102.43"/>
	<line class="st2" x1="404.22" y1="199.88" x2="195" y2="31.45"/>
	<line class="st2" x1="183.89" y1="22.5" x2="-25.32" y2="-145.94"/>
	<line class="st2" x1="404.22" y1="199.88" x2="-20.3" y2="-14.9"/>
	<line class="st2" x1="404.22" y1="199.88" x2="128.32" y2="126.8"/>
	<line class="st2" x1="105.03" y1="120.63" x2="-170.87" y2="47.54"/>
	<line class="st2" x1="404.22" y1="199.88" x2="-14.22" y2="179.15"/>
	<line class="st2" x1="404.22" y1="199.88" x2="-17.49" y2="267.9"/>
	<line class="st2" x1="404.22" y1="199.88" x2="246.22" y2="261.05"/>
	<line class="st2" x1="230.38" y1="267.18" x2="-6.3" y2="358.81"/>
	<line class="st2" x1="404.22" y1="199.88" x2="205.58" y2="329.68"/>
	<line class="st2" x1="404.22" y1="199.88" x2="239.65" y2="365.39"/>
	<line class="st2" x1="404.22" y1="199.88" x2="355.46" y2="275.43"/>
	<line class="st2" x1="404.22" y1="199.88" x2="370.87" y2="287.49"/>
	<line class="st2" x1="404.22" y1="199.88" x2="371.54" y2="410.04"/>
	<line class="st2" x1="404.22" y1="199.88" x2="415.96" y2="412.44"/>
	<line class="st2" x1="448.59" y1="363.62" x2="512.59" y2="599.79"/>
	<line class="st2" x1="404.22" y1="199.88" x2="458.75" y2="306.16"/>
	<line class="st2" x1="404.22" y1="199.88" x2="584.25" y2="420.92"/>
	<line class="st2" x1="404.22" y1="199.88" x2="708.72" y2="445.04"/>
	<line class="st2" x1="404.22" y1="199.88" x2="855.63" y2="428.28"/>
	<line class="st2" x1="404.22" y1="199.88" x2="519.67" y2="230.47"/>
	<line class="st2" x1="404.22" y1="199.88" x2="519.32" y2="205.59"/>
	<line class="st2" x1="404.22" y1="199.88" x2="1011.91" y2="101.86"/>
	<line class="st2" x1="404.22" y1="199.88" x2="818.89" y2="39.35"/>
	<line class="st2" x1="404.22" y1="199.88" x2="744.92" y2="-22.75"/>
	<line class="st2" x1="531.27" y1="72.11" x2="639.08" y2="-36.32"/>
	<line class="st2" x1="404.22" y1="199.88" x2="470.66" y2="96.93"/>
	<line class="st2" x1="404.22" y1="199.88" x2="490.18" y2="-25.98"/>
	<line class="st2" x1="404.22" y1="199.88" x2="441.2" y2="-37.97"/>
	<circle class="st1" cx="909.99" cy="-145.56" r="70.4"/>
	<circle class="st0" cx="795.83" cy="-177.33" r="73.02"/>
	<ellipse class="st1" cx="152.02" cy="360.76" rx="106.4" ry="105.8"/>
	<ellipse class="st0" cx="144.8" cy="371.97" rx="110.35" ry="109.73"/>
	<circle class="st1" cx="413.02" cy="22.28" r="2.09"/>
	<circle class="st1" cx="491.51" cy="136.08" r="2.09"/>
	<circle class="st1" cx="278.14" cy="118.52" r="2.09"/>
	<circle class="st1" cx="506.62" cy="72.69" r="2.7"/>
	<circle class="st1" cx="445.17" cy="7.1" r="2.7"/>
	<circle class="st1" cx="490.16" cy="48.15" r="1.35"/>
	<circle class="st1" cx="603.14" cy="145.98" r="2.7"/>
	<circle class="st1" cx="620.31" cy="222.13" r="2.7"/>
	<circle class="st1" cx="254.68" cy="199.52" r="1.61"/>
	<circle class="st1" cx="270.91" cy="79.63" r="1.61"/>
	<circle class="st1" cx="331.32" cy="343.97" r="2.63"/>
	<circle class="st1" cx="174.28" cy="151.6" r="2.63"/>
	<circle class="st1" cx="136.38" cy="7.1" r="2.24"/>
	<circle class="st1" cx="567.04" cy="304.96" r="2.63"/>
	<circle class="st1" cx="117.1" cy="123.82" r="2.98"/>
	<circle class="st1" cx="281.48" cy="49.2" r="4.05"/>
	<circle class="st1" cx="533.67" cy="186.15" r="1.38"/>
	<circle class="st1" cx="569.67" cy="49.5" r="1.38"/>
	<text transform="matrix(1 0 0 1 86.2643 332.8428)" class="st3 st4 st5 st6">CLICK</text>
	<text transform="matrix(1 0 0 1 63.3251 380.5929)" class="st3 st4 st7 st8">TO START</text>
	<text transform="matrix(1 0 0 1 102.2394 429.8047)" class="st3 st4 st7 st8">TOUR</text>
	<text transform="matrix(1 0 0 1 788.0375 -199.1465)" class="st1 st4" style="font-size:10px; letter-spacing:2;">AN</text>
	<text transform="matrix(1 0 0 1 736.1307 -174.0364)" class="st1 st4" style="font-size:12px; letter-spacing:2;">ASTROPHYSLCAL</text>
	<text transform="matrix(1 0 0 1 781.3956 -149.511)" class="st1 st4" style="font-size:10px; letter-spacing:2;">TOUR</text>
	<g>
		<circle class="st1" cx="407.97" cy="208.43" r="116.4"/>
		<circle class="st0" cx="396.36" cy="197.9" r="120.72"/>
	</g>
	<text transform="matrix(1 0 0 1 313.6445 162.0366)" class="st1 st4 st9 st10">WELCOME</text>
	<text transform="matrix(1 0 0 1 345.8129 205.5755)" class="st1 st4 st11 st12">TO THE</text>
	<text transform="matrix(1 0 0 1 305.2068 253.2063)" class="st1 st4 st13 st10">UNIVERSE</text>
</g>
</svg>
